# MagicaVoxel @ Ephtracy

# group
o 

# material
mtllib CubeVer1Solstinox.mtl
usemtl palette

# normals
vn -1 0 0
vn 1 0 0
vn 0 0 1
vn 0 0 -1
vn 0 -1 0
vn 0 1 0

# texcoords
vt 0.306641 0.5
vt 0.474609 0.5
vt 0.541016 0.5
vt 0.982422 0.5

# verts
v -0.5 0 0.5
v -0.5 0 -0.5
v -0.5 0.2 0.5
v -0.5 0.2 0.2
v -0.5 0.3 0.2
v -0.5 0.3 0
v -0.5 0.4 0.4
v -0.5 0.4 0.3
v -0.5 0.5 0.5
v -0.5 0.5 0.4
v -0.5 0.5 0.3
v -0.5 0.5 0
v -0.5 0.6 0.5
v -0.5 0.6 -0.5
v -0.5 0.7 0.5
v -0.5 0.7 -0.5
v -0.4 0.2 0.5
v -0.4 0.2 0.2
v -0.4 0.3 0.5
v -0.4 0.3 0.2
v -0.4 0.4 0.5
v -0.4 0.4 0.4
v -0.4 0.4 0.3
v -0.4 0.4 0
v -0.4 0.5 0.5
v -0.4 0.5 0.4
v -0.4 0.5 0.3
v -0.4 0.5 0
v -0.3 0.3 0.5
v -0.3 0.3 0.4
v -0.3 0.3 0.3
v -0.3 0.3 0
v -0.3 0.4 0.5
v -0.3 0.4 0.4
v -0.3 0.4 0.3
v -0.3 0.4 0
v -0.2 0.4 0.5
v -0.2 0.4 0.4
v -0.2 0.5 0.5
v -0.2 0.5 0.4
v 0 0.2 0.5
v 0 0.2 0.4
v 0 0.3 0.5
v 0 0.3 0.4
v 0.2 0.2 -0.4
v 0.2 0.2 -0.5
v 0.2 0.3 -0.4
v 0.2 0.3 -0.5
v 0.2 0.4 0.5
v 0.2 0.4 0.4
v 0.2 0.5 0.5
v 0.2 0.5 0.4
v 0.4 0.2 0.5
v 0.4 0.2 0.4
v 0.4 0.3 0.5
v 0.4 0.3 0.4
v 0.4 0.3 -0.3
v 0.4 0.3 -0.4
v 0.4 0.4 0.4
v 0.4 0.4 -0.3
v 0.4 0.4 -0.4
v 0.4 0.4 -0.5
v 0.4 0.5 0.5
v 0.4 0.5 0.4
v 0.4 0.5 -0.4
v 0.4 0.5 -0.5
v -0.3 0.2 0.5
v -0.3 0.2 0.4
v -0.3 0.3 0.5
v -0.3 0.3 0.4
v -0.3 0.4 0.5
v -0.3 0.4 0.4
v -0.3 0.5 0.5
v -0.3 0.5 0.4
v -0.2 0.3 0.5
v -0.2 0.3 0.4
v -0.2 0.4 0.5
v -0.2 0.4 0.4
v -0.1 0.3 -0.3
v -0.1 0.3 -0.4
v -0.1 0.3 -0.5
v -0.1 0.4 0.5
v -0.1 0.4 0.4
v -0.1 0.4 -0.3
v -0.1 0.4 -0.4
v -0.1 0.4 -0.5
v -0.1 0.5 0.5
v -0.1 0.5 0.4
v 0.1 0.2 0.5
v 0.1 0.2 0.4
v 0.1 0.2 -0.4
v 0.1 0.2 -0.5
v 0.1 0.3 0.5
v 0.1 0.3 0.4
v 0.1 0.3 -0.4
v 0.1 0.3 -0.5
v 0.1 0.4 -0.4
v 0.1 0.4 -0.5
v 0.1 0.5 -0.4
v 0.1 0.5 -0.5
v 0.3 0.2 -0.4
v 0.3 0.2 -0.5
v 0.3 0.3 0.3
v 0.3 0.3 -0.3
v 0.3 0.3 -0.4
v 0.3 0.3 -0.5
v 0.3 0.4 0.5
v 0.3 0.4 0.4
v 0.3 0.4 0.3
v 0.3 0.4 0.2
v 0.3 0.4 -0.1
v 0.3 0.4 -0.2
v 0.3 0.4 -0.3
v 0.3 0.5 0.5
v 0.3 0.5 0.4
v 0.4 0.2 0.3
v 0.4 0.2 0.1
v 0.4 0.2 0
v 0.4 0.2 -0.2
v 0.4 0.3 0.3
v 0.4 0.3 0.1
v 0.4 0.3 0
v 0.4 0.3 -0.2
v 0.4 0.4 0.4
v 0.4 0.4 0.3
v 0.4 0.4 0.2
v 0.4 0.4 0.1
v 0.4 0.4 0
v 0.4 0.4 -0.1
v 0.4 0.4 -0.2
v 0.4 0.4 -0.3
v 0.4 0.4 -0.4
v 0.4 0.5 0.4
v 0.4 0.5 0.3
v 0.4 0.5 0.2
v 0.4 0.5 0.1
v 0.4 0.5 0
v 0.4 0.5 -0.1
v 0.4 0.5 -0.2
v 0.4 0.5 -0.4
v 0.5 0 0.5
v 0.5 0 -0.5
v 0.5 0.1 0.5
v 0.5 0.1 0.4
v 0.5 0.2 0.5
v 0.5 0.2 0.4
v 0.5 0.2 0.3
v 0.5 0.2 0.1
v 0.5 0.2 0
v 0.5 0.2 -0.2
v 0.5 0.2 -0.3
v 0.5 0.2 -0.4
v 0.5 0.2 -0.5
v 0.5 0.3 0.5
v 0.5 0.3 0.4
v 0.5 0.3 0.3
v 0.5 0.3 0.1
v 0.5 0.3 0
v 0.5 0.3 -0.2
v 0.5 0.3 -0.3
v 0.5 0.3 -0.4
v 0.5 0.4 0.3
v 0.5 0.4 0.2
v 0.5 0.4 0.1
v 0.5 0.4 0
v 0.5 0.4 -0.1
v 0.5 0.4 -0.2
v 0.5 0.4 -0.3
v 0.5 0.4 -0.4
v 0.5 0.4 -0.5
v 0.5 0.5 0.4
v 0.5 0.5 0.3
v 0.5 0.5 0.2
v 0.5 0.5 0.1
v 0.5 0.5 0
v 0.5 0.5 -0.1
v 0.5 0.5 -0.2
v 0.5 0.5 -0.4
v 0.5 0.6 0.3
v 0.5 0.6 0.1
v 0.5 0.6 0
v 0.5 0.6 -0.1
v 0.5 0.6 -0.2
v 0.5 0.6 -0.4
v 0.5 0.7 0.5
v 0.5 0.7 -0.5
v -0.5 0 0.5
v -0.5 0.2 0.5
v -0.5 0.5 0.5
v -0.5 0.6 0.5
v -0.5 0.7 0.5
v -0.4 0.2 0.5
v -0.4 0.3 0.5
v -0.4 0.4 0.5
v -0.4 0.5 0.5
v -0.4 0.6 0.5
v -0.3 0.2 0.5
v -0.3 0.3 0.5
v -0.3 0.4 0.5
v -0.3 0.5 0.5
v -0.3 0.6 0.5
v -0.2 0.3 0.5
v -0.2 0.4 0.5
v -0.2 0.5 0.5
v -0.1 0.4 0.5
v -0.1 0.5 0.5
v 0 0.2 0.5
v 0 0.3 0.5
v 0 0.5 0.5
v 0 0.6 0.5
v 0.1 0.2 0.5
v 0.1 0.3 0.5
v 0.1 0.5 0.5
v 0.1 0.6 0.5
v 0.2 0.4 0.5
v 0.2 0.5 0.5
v 0.3 0 0.5
v 0.3 0.1 0.5
v 0.3 0.4 0.5
v 0.3 0.5 0.5
v 0.4 0 0.5
v 0.4 0.1 0.5
v 0.4 0.2 0.5
v 0.4 0.3 0.5
v 0.4 0.5 0.5
v 0.4 0.6 0.5
v 0.5 0 0.5
v 0.5 0.1 0.5
v 0.5 0.2 0.5
v 0.5 0.3 0.5
v 0.5 0.7 0.5
v -0.5 0.4 0.4
v -0.5 0.5 0.4
v -0.4 0.4 0.4
v -0.4 0.5 0.4
v -0.3 0.2 0.4
v -0.3 0.3 0.4
v -0.3 0.4 0.4
v -0.3 0.5 0.4
v -0.2 0.3 0.4
v -0.2 0.4 0.4
v -0.2 0.5 0.4
v -0.1 0.4 0.4
v -0.1 0.5 0.4
v 0 0.2 0.4
v 0 0.3 0.4
v 0 0.5 0.4
v 0.1 0.2 0.4
v 0.1 0.3 0.4
v 0.1 0.5 0.4
v 0.2 0.4 0.4
v 0.2 0.5 0.4
v 0.3 0.4 0.4
v 0.3 0.5 0.4
v 0.4 0.2 0.4
v 0.4 0.3 0.4
v 0.4 0.4 0.4
v 0.4 0.5 0.4
v -0.3 0.3 0.3
v -0.3 0.4 0.3
v -0.2 0.4 0.3
v -0.1 0.4 0.3
v 0.2 0.4 0.3
v 0.3 0.3 0.3
v 0.3 0.4 0.3
v 0.4 0.4 0.3
v 0.4 0.5 0.3
v 0.5 0.4 0.3
v 0.5 0.5 0.3
v -0.5 0.2 0.2
v -0.5 0.3 0.2
v -0.4 0.2 0.2
v -0.4 0.3 0.2
v 0.4 0.2 0.1
v 0.4 0.3 0.1
v 0.4 0.4 0.1
v 0.4 0.5 0.1
v 0.5 0.2 0.1
v 0.5 0.3 0.1
v 0.5 0.4 0.1
v 0.5 0.5 0.1
v -0.5 0.3 0
v -0.5 0.5 0
v -0.4 0.4 0
v -0.4 0.5 0
v -0.3 0.3 0
v -0.3 0.4 0
v 0.4 0.4 -0.1
v 0.4 0.5 -0.1
v 0.5 0.4 -0.1
v 0.5 0.5 -0.1
v 0.4 0.2 -0.2
v 0.4 0.3 -0.2
v 0.5 0.2 -0.2
v 0.5 0.3 -0.2
v 0.4 0.3 -0.3
v 0.4 0.4 -0.3
v 0.5 0.3 -0.3
v 0.5 0.4 -0.3
v 0.4 0.4 -0.4
v 0.4 0.5 -0.4
v 0.5 0.4 -0.4
v 0.5 0.5 -0.4
v -0.3 0.3 0.4
v -0.3 0.4 0.4
v -0.2 0.3 0.4
v -0.2 0.4 0.4
v 0.4 0.3 0.4
v 0.4 0.4 0.4
v 0.4 0.5 0.4
v 0.5 0.3 0.4
v 0.5 0.5 0.4
v -0.5 0.4 0.3
v -0.5 0.5 0.3
v -0.4 0.4 0.3
v -0.4 0.5 0.3
v 0.4 0.2 0.3
v 0.4 0.3 0.3
v 0.5 0.2 0.3
v 0.5 0.3 0.3
v 0.4 0.4 0.2
v 0.4 0.5 0.2
v 0.5 0.4 0.2
v 0.5 0.5 0.2
v 0.4 0.2 0
v 0.4 0.3 0
v 0.4 0.4 0
v 0.4 0.5 0
v 0.5 0.2 0
v 0.5 0.3 0
v 0.5 0.4 0
v 0.5 0.5 0
v 0.4 0.4 -0.2
v 0.4 0.5 -0.2
v 0.5 0.4 -0.2
v 0.5 0.5 -0.2
v -0.1 0.3 -0.3
v -0.1 0.4 -0.3
v 0.3 0.3 -0.3
v 0.3 0.4 -0.3
v 0.1 0.2 -0.4
v 0.1 0.3 -0.4
v 0.1 0.4 -0.4
v 0.1 0.5 -0.4
v 0.2 0.2 -0.4
v 0.2 0.3 -0.4
v 0.3 0.2 -0.4
v 0.3 0.3 -0.4
v 0.4 0.3 -0.4
v 0.4 0.4 -0.4
v 0.4 0.5 -0.4
v 0.5 0.2 -0.4
v 0.5 0.3 -0.4
v 0.5 0.4 -0.4
v -0.5 0 -0.5
v -0.5 0.6 -0.5
v -0.5 0.7 -0.5
v -0.1 0.3 -0.5
v -0.1 0.4 -0.5
v 0.1 0.2 -0.5
v 0.1 0.3 -0.5
v 0.1 0.4 -0.5
v 0.1 0.5 -0.5
v 0.2 0.2 -0.5
v 0.2 0.3 -0.5
v 0.3 0.2 -0.5
v 0.3 0.3 -0.5
v 0.4 0.4 -0.5
v 0.4 0.5 -0.5
v 0.4 0.6 -0.5
v 0.5 0 -0.5
v 0.5 0.2 -0.5
v 0.5 0.4 -0.5
v 0.5 0.7 -0.5
v -0.5 0 0.5
v 0.3 0 0.5
v 0.4 0 0.5
v 0.5 0 0.5
v 0.3 0 0.4
v 0.4 0 0.4
v -0.5 0 -0.5
v 0.5 0 -0.5
v -0.3 0.3 0.5
v -0.2 0.3 0.5
v -0.3 0.3 0.4
v -0.2 0.3 0.4
v -0.4 0.4 0.5
v -0.3 0.4 0.5
v -0.2 0.4 0.5
v -0.1 0.4 0.5
v 0.2 0.4 0.5
v 0.3 0.4 0.5
v -0.5 0.4 0.4
v -0.4 0.4 0.4
v -0.3 0.4 0.4
v -0.2 0.4 0.4
v -0.1 0.4 0.4
v 0.2 0.4 0.4
v 0.3 0.4 0.4
v 0.4 0.4 0.4
v -0.5 0.4 0.3
v -0.4 0.4 0.3
v -0.3 0.4 0.3
v -0.2 0.4 0.3
v -0.1 0.4 0.3
v 0.2 0.4 0.3
v 0.3 0.4 0.3
v 0.4 0.4 0.3
v 0.5 0.4 0.3
v 0.3 0.4 0.2
v 0.4 0.4 0.2
v 0.5 0.4 0.2
v 0.4 0.4 0.1
v 0.5 0.4 0.1
v -0.4 0.4 0
v -0.3 0.4 0
v 0.4 0.4 0
v 0.5 0.4 0
v 0.3 0.4 -0.1
v 0.4 0.4 -0.1
v 0.5 0.4 -0.1
v 0.3 0.4 -0.2
v 0.4 0.4 -0.2
v 0.5 0.4 -0.2
v -0.1 0.4 -0.3
v 0.3 0.4 -0.3
v 0.4 0.4 -0.3
v -0.1 0.4 -0.4
v 0.1 0.4 -0.4
v 0.4 0.4 -0.4
v 0.5 0.4 -0.4
v -0.1 0.4 -0.5
v 0.1 0.4 -0.5
v 0.4 0.4 -0.5
v 0.5 0.4 -0.5
v -0.5 0.5 0.5
v -0.4 0.5 0.5
v -0.3 0.5 0.5
v -0.2 0.5 0.5
v -0.1 0.5 0.5
v 0 0.5 0.5
v 0.1 0.5 0.5
v 0.2 0.5 0.5
v 0.3 0.5 0.5
v 0.4 0.5 0.5
v -0.5 0.5 0.4
v -0.4 0.5 0.4
v -0.3 0.5 0.4
v -0.2 0.5 0.4
v -0.1 0.5 0.4
v 0 0.5 0.4
v 0.1 0.5 0.4
v 0.2 0.5 0.4
v 0.3 0.5 0.4
v 0.4 0.5 0.4
v 0.5 0.5 0.4
v -0.5 0.5 0.3
v -0.4 0.5 0.3
v 0.4 0.5 0.3
v 0.5 0.5 0.3
v 0.4 0.5 0.2
v 0.5 0.5 0.2
v 0.4 0.5 0.1
v 0.5 0.5 0.1
v -0.5 0.5 0
v -0.4 0.5 0
v 0.4 0.5 0
v 0.5 0.5 0
v 0.4 0.5 -0.1
v 0.5 0.5 -0.1
v 0.4 0.5 -0.2
v 0.5 0.5 -0.2
v 0.1 0.5 -0.4
v 0.4 0.5 -0.4
v 0.5 0.5 -0.4
v 0.1 0.5 -0.5
v 0.4 0.5 -0.5
v -0.5 0.2 0.5
v -0.4 0.2 0.5
v -0.3 0.2 0.5
v 0 0.2 0.5
v 0.1 0.2 0.5
v 0.4 0.2 0.5
v -0.3 0.2 0.4
v 0 0.2 0.4
v 0.1 0.2 0.4
v 0.4 0.2 0.4
v 0.4 0.2 0.3
v 0.5 0.2 0.3
v -0.5 0.2 0.2
v -0.4 0.2 0.2
v 0.4 0.2 0.1
v 0.5 0.2 0.1
v 0.4 0.2 0
v 0.5 0.2 0
v 0.4 0.2 -0.2
v 0.5 0.2 -0.2
v 0.1 0.2 -0.4
v 0.2 0.2 -0.4
v 0.3 0.2 -0.4
v 0.5 0.2 -0.4
v 0.1 0.2 -0.5
v 0.2 0.2 -0.5
v 0.3 0.2 -0.5
v 0.5 0.2 -0.5
v -0.4 0.3 0.5
v -0.3 0.3 0.5
v 0 0.3 0.5
v 0.1 0.3 0.5
v -0.3 0.3 0.4
v -0.2 0.3 0.4
v 0 0.3 0.4
v 0.1 0.3 0.4
v 0.4 0.3 0.4
v 0.5 0.3 0.4
v -0.3 0.3 0.3
v 0.3 0.3 0.3
v 0.4 0.3 0.3
v 0.5 0.3 0.3
v -0.5 0.3 0.2
v -0.4 0.3 0.2
v 0.4 0.3 0.1
v 0.5 0.3 0.1
v -0.5 0.3 0
v -0.3 0.3 0
v 0.4 0.3 0
v 0.5 0.3 0
v 0.4 0.3 -0.2
v 0.5 0.3 -0.2
v -0.1 0.3 -0.3
v 0.3 0.3 -0.3
v 0.4 0.3 -0.3
v 0.5 0.3 -0.3
v -0.1 0.3 -0.4
v 0.1 0.3 -0.4
v 0.2 0.3 -0.4
v 0.3 0.3 -0.4
v 0.4 0.3 -0.4
v -0.1 0.3 -0.5
v 0.1 0.3 -0.5
v 0.2 0.3 -0.5
v 0.3 0.3 -0.5
v -0.3 0.4 0.5
v -0.2 0.4 0.5
v -0.3 0.4 0.4
v -0.2 0.4 0.4
v 0.4 0.4 -0.3
v 0.5 0.4 -0.3
v 0.4 0.4 -0.4
v 0.5 0.4 -0.4
v -0.5 0.7 0.5
v 0.5 0.7 0.5
v -0.4 0.7 0.4
v -0.3 0.7 0.4
v -0.1 0.7 0.4
v 0 0.7 0.4
v 0.2 0.7 0.4
v 0.3 0.7 0.4
v 0.4 0.7 0.4
v -0.3 0.7 0.3
v -0.2 0.7 0.3
v -0.1 0.7 0.3
v 0.1 0.7 0.3
v 0.2 0.7 0.3
v 0.3 0.7 0.3
v -0.4 0.7 0.2
v -0.3 0.7 0.2
v -0.2 0.7 0.2
v 0 0.7 0.2
v 0.1 0.7 0.2
v 0.2 0.7 0.2
v 0.3 0.7 0.2
v 0.4 0.7 0.2
v -0.1 0.7 0.1
v 0.1 0.7 0.1
v -0.3 0.7 0
v -0.1 0.7 0
v 0 0.7 0
v 0.3 0.7 0
v -0.4 0.7 -0.1
v -0.3 0.7 -0.1
v -0.2 0.7 -0.1
v 0.1 0.7 -0.1
v 0.3 0.7 -0.1
v -0.4 0.7 -0.2
v -0.2 0.7 -0.2
v -0.1 0.7 -0.2
v 0 0.7 -0.2
v 0.1 0.7 -0.2
v 0.2 0.7 -0.2
v 0.3 0.7 -0.2
v 0.4 0.7 -0.2
v -0.1 0.7 -0.3
v 0 0.7 -0.3
v 0.2 0.7 -0.3
v 0.4 0.7 -0.3
v -0.5 0.7 -0.5
v 0.5 0.7 -0.5

# faces
f 3/2/1 2/2/1 1/2/1
f 4/2/1 2/2/1 3/2/1
f 5/2/1 2/2/1 4/2/1
f 6/2/1 2/2/1 5/2/1
f 10/2/1 8/2/1 7/2/1
f 11/2/1 8/2/1 10/2/1
f 12/2/1 2/2/1 6/2/1
f 13/2/1 11/2/1 10/2/1
f 13/2/1 12/2/1 11/2/1
f 13/2/1 10/2/1 9/2/1
f 14/2/1 2/2/1 12/2/1
f 14/2/1 12/2/1 13/2/1
f 15/3/1 14/3/1 13/3/1
f 16/3/1 14/3/1 15/3/1
f 19/2/1 18/2/1 17/2/1
f 20/2/1 18/2/1 19/2/1
f 25/3/1 22/3/1 21/3/1
f 26/3/1 22/3/1 25/3/1
f 27/2/1 24/2/1 23/2/1
f 28/2/1 24/2/1 27/2/1
f 33/3/1 30/3/1 29/3/1
f 34/3/1 30/3/1 33/3/1
f 35/2/1 32/2/1 31/2/1
f 36/2/1 32/2/1 35/2/1
f 39/2/1 38/2/1 37/2/1
f 40/2/1 38/2/1 39/2/1
f 43/2/1 42/2/1 41/2/1
f 44/2/1 42/2/1 43/2/1
f 47/2/1 46/2/1 45/2/1
f 48/2/1 46/2/1 47/2/1
f 51/2/1 50/2/1 49/2/1
f 52/2/1 50/2/1 51/2/1
f 55/2/1 54/2/1 53/2/1
f 56/2/1 54/2/1 55/2/1
f 59/3/1 56/3/1 55/3/1
f 60/3/1 58/3/1 57/3/1
f 61/3/1 58/3/1 60/3/1
f 63/3/1 59/3/1 55/3/1
f 64/3/1 59/3/1 63/3/1
f 65/3/1 62/3/1 61/3/1
f 66/3/1 62/3/1 65/3/1
f 67/2/2 68/2/2 69/2/2
f 69/2/2 68/2/2 70/2/2
f 71/3/2 72/3/2 73/3/2
f 73/3/2 72/3/2 74/3/2
f 75/3/2 76/3/2 77/3/2
f 77/3/2 76/3/2 78/3/2
f 79/1/2 80/1/2 84/1/2
f 80/2/2 81/2/2 85/2/2
f 84/1/2 80/1/2 85/1/2
f 85/2/2 81/2/2 86/2/2
f 82/2/2 83/2/2 87/2/2
f 87/2/2 83/2/2 88/2/2
f 89/2/2 90/2/2 93/2/2
f 93/2/2 90/2/2 94/2/2
f 91/2/2 92/2/2 95/2/2
f 95/2/2 92/2/2 96/2/2
f 97/2/2 98/2/2 99/2/2
f 99/2/2 98/2/2 100/2/2
f 101/2/2 102/2/2 105/2/2
f 105/2/2 102/2/2 106/2/2
f 103/2/2 104/2/2 109/2/2
f 109/2/2 104/2/2 110/2/2
f 110/2/2 104/2/2 111/2/2
f 111/2/2 104/2/2 112/2/2
f 112/2/2 104/2/2 113/2/2
f 107/2/2 108/2/2 114/2/2
f 114/2/2 108/2/2 115/2/2
f 116/2/2 117/2/2 120/2/2
f 120/2/2 117/2/2 121/2/2
f 118/2/2 119/2/2 122/2/2
f 122/2/2 119/2/2 123/2/2
f 124/2/2 125/2/2 133/2/2
f 133/2/2 125/2/2 134/2/2
f 126/2/2 127/2/2 135/2/2
f 135/2/2 127/2/2 136/2/2
f 128/2/2 129/2/2 137/2/2
f 137/2/2 129/2/2 138/2/2
f 131/2/2 132/2/2 139/2/2
f 130/2/2 131/2/2 139/2/2
f 139/2/2 132/2/2 140/2/2
f 141/2/2 142/2/2 143/2/2
f 143/2/2 142/2/2 144/2/2
f 143/3/2 144/3/2 145/3/2
f 144/2/2 142/2/2 146/2/2
f 145/3/2 144/3/2 146/3/2
f 146/2/2 142/2/2 147/2/2
f 147/2/2 142/2/2 148/2/2
f 148/2/2 142/2/2 149/2/2
f 149/2/2 142/2/2 150/2/2
f 150/2/2 142/2/2 151/2/2
f 151/2/2 142/2/2 152/2/2
f 152/2/2 142/2/2 153/2/2
f 145/2/2 146/2/2 154/2/2
f 146/3/2 147/3/2 155/3/2
f 154/2/2 146/2/2 155/2/2
f 155/3/2 147/3/2 156/3/2
f 148/2/2 149/2/2 157/2/2
f 157/2/2 149/2/2 158/2/2
f 150/3/2 151/3/2 159/3/2
f 151/2/2 152/2/2 160/2/2
f 159/3/2 151/3/2 160/3/2
f 160/2/2 152/2/2 161/2/2
f 160/3/2 161/3/2 168/3/2
f 168/3/2 161/3/2 169/3/2
f 154/3/2 155/3/2 171/3/2
f 162/2/2 163/2/2 172/2/2
f 172/2/2 163/2/2 173/2/2
f 164/3/2 165/3/2 174/3/2
f 174/3/2 165/3/2 175/3/2
f 166/2/2 167/2/2 176/2/2
f 176/2/2 167/2/2 177/2/2
f 169/3/2 170/3/2 178/3/2
f 172/2/2 173/2/2 179/2/2
f 171/3/2 172/3/2 179/3/2
f 173/2/2 174/2/2 179/2/2
f 174/3/2 175/3/2 180/3/2
f 179/2/2 174/2/2 180/2/2
f 175/2/2 176/2/2 181/2/2
f 180/3/2 175/3/2 181/3/2
f 176/3/2 177/3/2 182/3/2
f 181/2/2 176/2/2 182/2/2
f 177/2/2 178/2/2 183/2/2
f 182/3/2 177/3/2 183/3/2
f 178/3/2 170/3/2 184/3/2
f 183/2/2 178/2/2 184/2/2
f 180/3/2 181/3/2 185/3/2
f 171/3/2 179/3/2 185/3/2
f 183/3/2 184/3/2 185/3/2
f 179/3/2 180/3/2 185/3/2
f 154/3/2 171/3/2 185/3/2
f 181/3/2 182/3/2 185/3/2
f 182/3/2 183/3/2 185/3/2
f 184/3/2 170/3/2 186/3/2
f 185/3/2 184/3/2 186/3/2
f 192/2/3 188/2/3 187/2/3
f 195/2/3 190/2/3 189/2/3
f 196/3/3 191/3/3 190/3/3
f 196/2/3 190/2/3 195/2/3
f 197/2/3 193/2/3 192/2/3
f 197/2/3 192/2/3 187/2/3
f 198/2/3 193/2/3 197/2/3
f 199/3/3 195/3/3 194/3/3
f 199/3/3 196/3/3 195/3/3
f 200/3/3 196/3/3 199/3/3
f 201/3/3 191/3/3 196/3/3
f 201/3/3 196/3/3 200/3/3
f 202/3/3 199/3/3 198/3/3
f 203/3/3 199/3/3 202/3/3
f 204/2/3 201/2/3 200/2/3
f 205/2/3 204/2/3 203/2/3
f 206/2/3 201/2/3 204/2/3
f 206/2/3 204/2/3 205/2/3
f 207/2/3 197/2/3 187/2/3
f 209/2/3 201/2/3 206/2/3
f 210/3/3 191/3/3 201/3/3
f 210/2/3 201/2/3 209/2/3
f 211/2/3 208/2/3 207/2/3
f 211/2/3 207/2/3 187/2/3
f 212/2/3 208/2/3 211/2/3
f 213/3/3 210/3/3 209/3/3
f 214/3/3 191/3/3 210/3/3
f 214/3/3 210/3/3 213/3/3
f 216/2/3 214/2/3 213/2/3
f 217/2/3 211/2/3 187/2/3
f 218/2/3 211/2/3 217/2/3
f 219/2/3 216/2/3 215/2/3
f 220/2/3 214/2/3 216/2/3
f 220/2/3 216/2/3 219/2/3
f 221/3/3 218/3/3 217/3/3
f 222/2/3 211/2/3 218/2/3
f 222/3/3 218/3/3 221/3/3
f 223/2/3 211/2/3 222/2/3
f 225/2/3 214/2/3 220/2/3
f 226/3/3 191/3/3 214/3/3
f 226/2/3 214/2/3 225/2/3
f 227/2/3 222/2/3 221/2/3
f 228/3/3 223/3/3 222/3/3
f 228/2/3 222/2/3 227/2/3
f 229/2/3 224/2/3 223/2/3
f 229/3/3 223/3/3 228/3/3
f 230/3/3 225/3/3 224/3/3
f 230/2/3 224/2/3 229/2/3
f 230/3/3 226/3/3 225/3/3
f 231/3/3 191/3/3 226/3/3
f 231/3/3 226/3/3 230/3/3
f 234/2/3 233/2/3 232/2/3
f 235/2/3 233/2/3 234/2/3
f 240/2/3 237/2/3 236/2/3
f 241/2/3 239/2/3 238/2/3
f 242/2/3 239/2/3 241/2/3
f 245/2/3 240/2/3 236/2/3
f 246/2/3 240/2/3 245/2/3
f 247/2/3 244/2/3 243/2/3
f 250/2/3 247/2/3 243/2/3
f 251/2/3 250/2/3 243/2/3
f 252/2/3 250/2/3 251/2/3
f 255/2/3 249/2/3 248/2/3
f 256/2/3 249/2/3 255/2/3
f 257/2/3 254/2/3 253/2/3
f 258/2/3 254/2/3 257/2/3
f 261/2/3 260/2/3 259/2/3
f 262/2/3 261/2/3 259/2/3
f 263/2/3 262/2/3 259/2/3
f 264/2/3 263/2/3 259/2/3
f 265/2/3 263/2/3 264/2/3
f 268/2/3 267/2/3 266/2/3
f 269/2/3 267/2/3 268/2/3
f 272/2/3 271/2/3 270/2/3
f 273/2/3 271/2/3 272/2/3
f 278/2/3 275/2/3 274/2/3
f 279/2/3 275/2/3 278/2/3
f 280/3/3 277/3/3 276/3/3
f 281/3/3 277/3/3 280/3/3
f 284/2/3 283/2/3 282/2/3
f 285/2/3 283/2/3 284/2/3
f 286/2/3 284/2/3 282/2/3
f 287/2/3 284/2/3 286/2/3
f 290/2/3 289/2/3 288/2/3
f 291/2/3 289/2/3 290/2/3
f 294/3/3 293/3/3 292/3/3
f 295/3/3 293/3/3 294/3/3
f 298/3/3 297/3/3 296/3/3
f 299/3/3 297/3/3 298/3/3
f 302/3/3 301/3/3 300/3/3
f 303/3/3 301/3/3 302/3/3
f 304/3/4 305/3/4 306/3/4
f 306/3/4 305/3/4 307/3/4
f 308/3/4 309/3/4 311/3/4
f 309/3/4 310/3/4 311/3/4
f 311/3/4 310/3/4 312/3/4
f 313/2/4 314/2/4 315/2/4
f 315/2/4 314/2/4 316/2/4
f 317/3/4 318/3/4 319/3/4
f 319/3/4 318/3/4 320/3/4
f 321/2/4 322/2/4 323/2/4
f 323/2/4 322/2/4 324/2/4
f 325/2/4 326/2/4 329/2/4
f 329/2/4 326/2/4 330/2/4
f 327/3/4 328/3/4 331/3/4
f 331/3/4 328/3/4 332/3/4
f 333/2/4 334/2/4 335/2/4
f 335/2/4 334/2/4 336/2/4
f 337/2/4 338/2/4 339/2/4
f 339/2/4 338/2/4 340/2/4
f 341/2/4 342/2/4 345/2/4
f 345/2/4 342/2/4 346/2/4
f 347/2/4 348/2/4 349/2/4
f 343/2/4 344/2/4 350/2/4
f 350/2/4 344/2/4 351/2/4
f 347/2/4 349/2/4 352/2/4
f 349/3/4 350/3/4 353/3/4
f 352/2/4 349/2/4 353/2/4
f 353/3/4 350/3/4 354/3/4
f 355/2/4 356/2/4 358/2/4
f 358/2/4 356/2/4 359/2/4
f 355/2/4 358/2/4 360/2/4
f 360/2/4 358/2/4 361/2/4
f 359/2/4 356/2/4 362/2/4
f 362/2/4 356/2/4 363/2/4
f 355/2/4 360/2/4 364/2/4
f 355/2/4 364/2/4 366/2/4
f 364/2/4 365/2/4 366/2/4
f 366/2/4 365/2/4 367/2/4
f 363/2/4 356/2/4 369/2/4
f 356/3/4 357/3/4 370/3/4
f 369/2/4 356/2/4 370/2/4
f 355/2/4 366/2/4 371/2/4
f 371/2/4 366/2/4 372/2/4
f 368/3/4 369/3/4 373/3/4
f 369/3/4 370/3/4 373/3/4
f 370/3/4 357/3/4 374/3/4
f 373/3/4 370/3/4 374/3/4
f 379/2/5 376/2/5 375/2/5
f 379/3/5 377/3/5 376/3/5
f 380/2/5 378/2/5 377/2/5
f 380/3/5 377/3/5 379/3/5
f 381/2/5 379/2/5 375/2/5
f 381/2/5 380/2/5 379/2/5
f 382/2/5 378/2/5 380/2/5
f 382/2/5 380/2/5 381/2/5
f 385/3/5 384/3/5 383/3/5
f 386/3/5 384/3/5 385/3/5
f 394/3/5 388/3/5 387/3/5
f 395/3/5 388/3/5 394/3/5
f 396/2/5 390/2/5 389/2/5
f 397/2/5 390/2/5 396/2/5
f 398/2/5 392/2/5 391/2/5
f 399/2/5 392/2/5 398/2/5
f 401/2/5 395/2/5 394/2/5
f 401/2/5 394/2/5 393/2/5
f 401/2/5 396/2/5 395/2/5
f 402/2/5 396/2/5 401/2/5
f 403/2/5 396/2/5 402/2/5
f 404/1/5 397/1/5 396/1/5
f 404/2/5 396/2/5 403/2/5
f 405/2/5 398/2/5 397/2/5
f 405/1/5 397/1/5 404/1/5
f 406/1/5 399/1/5 398/1/5
f 406/2/5 398/2/5 405/2/5
f 407/2/5 400/2/5 399/2/5
f 407/1/5 399/1/5 406/1/5
f 408/2/5 400/2/5 407/2/5
f 410/1/5 408/1/5 407/1/5
f 411/2/5 409/2/5 408/2/5
f 411/1/5 408/1/5 410/1/5
f 412/2/5 409/2/5 411/2/5
f 413/2/5 411/2/5 410/2/5
f 415/2/5 403/2/5 402/2/5
f 416/2/5 403/2/5 415/2/5
f 417/3/5 414/3/5 413/3/5
f 417/2/5 413/2/5 410/2/5
f 418/3/5 414/3/5 417/3/5
f 419/2/5 417/2/5 410/2/5
f 420/2/5 417/2/5 419/2/5
f 422/1/5 420/1/5 419/1/5
f 423/2/5 421/2/5 420/2/5
f 423/1/5 420/1/5 422/1/5
f 424/2/5 421/2/5 423/2/5
f 426/2/5 423/2/5 422/2/5
f 427/2/5 423/2/5 426/2/5
f 428/2/5 426/2/5 425/2/5
f 428/2/5 427/2/5 426/2/5
f 429/2/5 427/2/5 428/2/5
f 430/2/5 427/2/5 429/2/5
f 432/2/5 429/2/5 428/2/5
f 433/2/5 429/2/5 432/2/5
f 434/3/5 431/3/5 430/3/5
f 435/3/5 431/3/5 434/3/5
f 446/2/5 437/2/5 436/2/5
f 447/2/5 437/2/5 446/2/5
f 448/2/5 439/2/5 438/2/5
f 449/2/5 439/2/5 448/2/5
f 450/2/5 441/2/5 440/2/5
f 451/3/5 442/3/5 441/3/5
f 451/2/5 441/2/5 450/2/5
f 452/2/5 443/2/5 442/2/5
f 452/3/5 442/3/5 451/3/5
f 453/2/5 443/2/5 452/2/5
f 454/2/5 445/2/5 444/2/5
f 455/2/5 445/2/5 454/2/5
f 459/3/5 456/3/5 455/3/5
f 460/3/5 456/3/5 459/3/5
f 463/2/5 462/2/5 461/2/5
f 464/2/5 462/2/5 463/2/5
f 465/2/5 458/2/5 457/2/5
f 466/2/5 458/2/5 465/2/5
f 469/2/5 468/2/5 467/2/5
f 470/2/5 468/2/5 469/2/5
f 474/2/5 472/2/5 471/2/5
f 475/2/5 472/2/5 474/2/5
f 476/2/5 474/2/5 473/2/5
f 477/2/5 474/2/5 476/2/5
f 480/2/6 481/2/6 484/2/6
f 484/2/6 481/2/6 485/2/6
f 482/2/6 483/2/6 486/2/6
f 486/2/6 483/2/6 487/2/6
f 478/2/6 479/2/6 490/2/6
f 490/2/6 479/2/6 491/2/6
f 488/2/6 489/2/6 492/2/6
f 492/2/6 489/2/6 493/2/6
f 494/2/6 495/2/6 496/2/6
f 496/2/6 495/2/6 497/2/6
f 498/2/6 499/2/6 502/2/6
f 502/2/6 499/2/6 503/2/6
f 500/2/6 501/2/6 504/2/6
f 504/2/6 501/2/6 505/2/6
f 506/2/6 507/2/6 510/2/6
f 508/2/6 509/2/6 512/2/6
f 512/2/6 509/2/6 513/2/6
f 510/2/6 511/2/6 516/2/6
f 506/2/6 510/2/6 516/2/6
f 513/2/6 514/2/6 516/2/6
f 512/2/6 513/2/6 516/2/6
f 511/2/6 512/2/6 516/2/6
f 516/2/6 514/2/6 517/2/6
f 514/3/6 515/3/6 518/3/6
f 517/2/6 514/2/6 518/2/6
f 518/3/6 515/3/6 519/3/6
f 506/2/6 516/2/6 521/2/6
f 517/2/6 518/2/6 522/2/6
f 520/2/6 521/2/6 524/2/6
f 521/2/6 516/2/6 525/2/6
f 524/2/6 521/2/6 525/2/6
f 522/2/6 523/2/6 526/2/6
f 517/2/6 522/2/6 526/2/6
f 526/2/6 523/2/6 527/2/6
f 517/2/6 526/2/6 528/2/6
f 517/2/6 528/2/6 531/2/6
f 528/3/6 529/3/6 532/3/6
f 531/2/6 528/2/6 532/2/6
f 532/3/6 529/3/6 533/3/6
f 530/2/6 531/2/6 534/2/6
f 531/2/6 532/2/6 534/2/6
f 534/2/6 532/2/6 535/2/6
f 535/2/6 532/2/6 536/2/6
f 536/2/6 532/2/6 537/2/6
f 537/2/6 532/2/6 538/2/6
f 534/2/6 535/2/6 539/2/6
f 539/2/6 535/2/6 540/2/6
f 536/2/6 537/2/6 541/2/6
f 541/2/6 537/2/6 542/2/6
f 543/3/6 544/3/6 545/3/6
f 545/3/6 544/3/6 546/3/6
f 547/3/6 548/3/6 549/3/6
f 549/3/6 548/3/6 550/3/6
f 551/3/6 552/3/6 553/3/6
f 553/3/6 552/3/6 554/3/6
f 554/3/6 552/3/6 555/3/6
f 555/3/6 552/3/6 556/3/6
f 556/3/6 552/3/6 557/3/6
f 557/3/6 552/3/6 558/3/6
f 558/3/6 552/3/6 559/3/6
f 553/2/6 554/2/6 560/2/6
f 554/3/6 555/3/6 560/3/6
f 560/3/6 555/3/6 561/3/6
f 555/4/6 556/4/6 562/4/6
f 561/3/6 555/3/6 562/3/6
f 556/2/6 557/2/6 563/2/6
f 557/4/6 558/4/6 564/4/6
f 563/2/6 557/2/6 564/2/6
f 558/2/6 559/2/6 565/2/6
f 564/4/6 558/4/6 565/4/6
f 551/3/6 553/3/6 566/3/6
f 553/2/6 560/2/6 566/2/6
f 560/4/6 561/4/6 567/4/6
f 566/2/6 560/2/6 567/2/6
f 561/2/6 562/2/6 568/2/6
f 567/4/6 561/4/6 568/4/6
f 562/4/6 556/4/6 569/4/6
f 556/2/6 563/2/6 569/2/6
f 563/3/6 564/3/6 570/3/6
f 569/2/6 563/2/6 570/2/6
f 564/2/6 565/2/6 571/2/6
f 570/3/6 564/3/6 571/3/6
f 565/2/6 559/2/6 572/2/6
f 571/2/6 565/2/6 572/2/6
f 559/3/6 552/3/6 573/3/6
f 572/2/6 559/2/6 573/2/6
f 562/4/6 569/4/6 574/4/6
f 568/2/6 562/2/6 574/2/6
f 567/2/6 568/2/6 574/2/6
f 569/4/6 570/4/6 574/4/6
f 570/2/6 571/2/6 575/2/6
f 574/4/6 570/4/6 575/4/6
f 571/2/6 572/2/6 575/2/6
f 567/2/6 574/2/6 576/2/6
f 566/3/6 567/3/6 576/3/6
f 574/2/6 575/2/6 576/2/6
f 576/2/6 575/2/6 577/2/6
f 577/2/6 575/2/6 578/2/6
f 575/2/6 572/2/6 579/2/6
f 578/2/6 575/2/6 579/2/6
f 572/3/6 573/3/6 579/3/6
f 551/3/6 566/3/6 580/3/6
f 566/3/6 576/3/6 580/3/6
f 576/4/6 577/4/6 581/4/6
f 580/3/6 576/3/6 581/3/6
f 581/4/6 577/4/6 582/4/6
f 578/4/6 579/4/6 583/4/6
f 579/3/6 573/3/6 584/3/6
f 583/4/6 579/4/6 584/4/6
f 551/3/6 580/3/6 585/3/6
f 580/2/6 581/2/6 585/2/6
f 581/2/6 582/2/6 585/2/6
f 582/4/6 577/4/6 586/4/6
f 585/2/6 582/2/6 586/2/6
f 577/2/6 578/2/6 587/2/6
f 586/4/6 577/4/6 587/4/6
f 578/4/6 583/4/6 588/4/6
f 587/2/6 578/2/6 588/2/6
f 583/2/6 584/2/6 589/2/6
f 588/4/6 583/4/6 589/4/6
f 589/2/6 584/2/6 590/2/6
f 584/3/6 573/3/6 591/3/6
f 590/2/6 584/2/6 591/2/6
f 573/3/6 552/3/6 592/3/6
f 591/3/6 573/3/6 592/3/6
f 585/3/6 586/3/6 593/3/6
f 586/3/6 587/3/6 593/3/6
f 587/2/6 588/2/6 593/2/6
f 589/3/6 590/3/6 594/3/6
f 593/2/6 588/2/6 594/2/6
f 588/3/6 589/3/6 594/3/6
f 590/2/6 591/2/6 595/2/6
f 594/3/6 590/3/6 595/3/6
f 591/2/6 592/2/6 595/2/6
f 592/3/6 552/3/6 596/3/6
f 595/2/6 592/2/6 596/2/6
f 594/3/6 595/3/6 597/3/6
f 585/3/6 593/3/6 597/3/6
f 595/3/6 596/3/6 597/3/6
f 551/3/6 585/3/6 597/3/6
f 593/3/6 594/3/6 597/3/6
f 596/3/6 552/3/6 598/3/6
f 597/3/6 596/3/6 598/3/6
