# MagicaVoxel @ Ephtracy

# group
o 

# material
mtllib TpArrow.mtl
usemtl palette

# normals
vn -1 0 0
vn 1 0 0
vn 0 0 1
vn 0 0 -1
vn 0 -1 0
vn 0 1 0

# texcoords
vt 0.0175781 0.5
vt 0.0449219 0.5
vt 0.845703 0.5

# verts
v -0.5 0 0.1
v -0.5 0 -0.1
v -0.5 0.2 0.1
v -0.5 0.2 -0.1
v -0.4 0 0.2
v -0.4 0 0.1
v -0.4 0 -0.1
v -0.4 0 -0.2
v -0.4 0.2 0.2
v -0.4 0.2 0.1
v -0.4 0.2 -0.1
v -0.4 0.2 -0.2
v -0.3 0 0.3
v -0.3 0 0.2
v -0.3 0 -0.2
v -0.3 0 -0.3
v -0.3 0.2 0.3
v -0.3 0.2 0.2
v -0.3 0.2 -0.2
v -0.3 0.2 -0.3
v -0.2 0 0.4
v -0.2 0 0.3
v -0.2 0 -0.3
v -0.2 0 -0.4
v -0.2 0.2 0.4
v -0.2 0.2 0.3
v -0.2 0.2 -0.3
v -0.2 0.2 -0.4
v -0.1 0 0.5
v -0.1 0 0.4
v -0.1 0 -0.4
v -0.1 0 -0.5
v -0.1 0.2 0.5
v -0.1 0.2 0.4
v -0.1 0.2 -0.4
v -0.1 0.2 -0.5
v 0 0 0.6
v 0 0 0.5
v 0 0 -0.5
v 0 0 -0.6
v 0 0.2 0.6
v 0 0.2 0.5
v 0 0.2 -0.5
v 0 0.2 -0.6
v 0.1 0 0.7
v 0.1 0 0.6
v 0.1 0 -0.6
v 0.1 0 -0.7
v 0.1 0.2 0.7
v 0.1 0.2 0.6
v 0.1 0.2 -0.6
v 0.1 0.2 -0.7
v 0.2 0 0.8
v 0.2 0 0.7
v 0.2 0 -0.7
v 0.2 0 -0.8
v 0.2 0.2 0.8
v 0.2 0.2 0.7
v 0.2 0.2 -0.7
v 0.2 0.2 -0.8
v 0.3 0 0.9
v 0.3 0 0.8
v 0.3 0 -0.8
v 0.3 0 -0.9
v 0.3 0.2 0.9
v 0.3 0.2 0.8
v 0.3 0.2 -0.8
v 0.3 0.2 -0.9
v 0.4 0 1
v 0.4 0 0.9
v 0.4 0 -0.9
v 0.4 0 -1
v 0.4 0.2 1
v 0.4 0.2 0.9
v 0.4 0.2 -0.9
v 0.4 0.2 -1
v 0.5 0 1
v 0.5 0 -1
v 0.5 0.2 1
v 0.5 0.2 -1
v 0.4 0 1
v 0.4 0.2 1
v 0.5 0 1
v 0.5 0.2 1
v 0.3 0 0.9
v 0.3 0.2 0.9
v 0.4 0 0.9
v 0.4 0.2 0.9
v 0.2 0 0.8
v 0.2 0.2 0.8
v 0.3 0 0.8
v 0.3 0.2 0.8
v 0.1 0 0.7
v 0.1 0.2 0.7
v 0.2 0 0.7
v 0.2 0.2 0.7
v 0 0 0.6
v 0 0.2 0.6
v 0.1 0 0.6
v 0.1 0.2 0.6
v -0.1 0 0.5
v -0.1 0.2 0.5
v 0 0 0.5
v 0 0.2 0.5
v -0.2 0 0.4
v -0.2 0.2 0.4
v -0.1 0 0.4
v -0.1 0.2 0.4
v -0.3 0 0.3
v -0.3 0.2 0.3
v -0.2 0 0.3
v -0.2 0.2 0.3
v -0.4 0 0.2
v -0.4 0.2 0.2
v -0.3 0 0.2
v -0.3 0.2 0.2
v -0.5 0 0.1
v -0.5 0.2 0.1
v -0.4 0 0.1
v -0.4 0.2 0.1
v -0.5 0 -0.1
v -0.5 0.2 -0.1
v -0.4 0 -0.1
v -0.4 0.2 -0.1
v -0.4 0 -0.2
v -0.4 0.2 -0.2
v -0.3 0 -0.2
v -0.3 0.2 -0.2
v -0.3 0 -0.3
v -0.3 0.2 -0.3
v -0.2 0 -0.3
v -0.2 0.2 -0.3
v -0.2 0 -0.4
v -0.2 0.2 -0.4
v -0.1 0 -0.4
v -0.1 0.2 -0.4
v -0.1 0 -0.5
v -0.1 0.2 -0.5
v 0 0 -0.5
v 0 0.2 -0.5
v 0 0 -0.6
v 0 0.2 -0.6
v 0.1 0 -0.6
v 0.1 0.2 -0.6
v 0.1 0 -0.7
v 0.1 0.2 -0.7
v 0.2 0 -0.7
v 0.2 0.2 -0.7
v 0.2 0 -0.8
v 0.2 0.2 -0.8
v 0.3 0 -0.8
v 0.3 0.2 -0.8
v 0.3 0 -0.9
v 0.3 0.2 -0.9
v 0.4 0 -0.9
v 0.4 0.2 -0.9
v 0.4 0 -1
v 0.4 0.2 -1
v 0.5 0 -1
v 0.5 0.2 -1
v 0.4 0 1
v 0.5 0 1
v 0.3 0 0.9
v 0.4 0 0.9
v 0.2 0 0.8
v 0.3 0 0.8
v 0.4 0 0.8
v 0.1 0 0.7
v 0.2 0 0.7
v 0.3 0 0.7
v 0 0 0.6
v 0.1 0 0.6
v 0.2 0 0.6
v -0.1 0 0.5
v 0 0 0.5
v 0.1 0 0.5
v -0.2 0 0.4
v -0.1 0 0.4
v 0 0 0.4
v -0.3 0 0.3
v -0.2 0 0.3
v -0.1 0 0.3
v -0.4 0 0.2
v -0.3 0 0.2
v -0.2 0 0.2
v -0.5 0 0.1
v -0.4 0 0.1
v -0.3 0 0.1
v -0.5 0 -0.1
v -0.4 0 -0.1
v -0.3 0 -0.1
v -0.4 0 -0.2
v -0.3 0 -0.2
v -0.2 0 -0.2
v -0.3 0 -0.3
v -0.2 0 -0.3
v -0.1 0 -0.3
v -0.2 0 -0.4
v -0.1 0 -0.4
v 0 0 -0.4
v -0.1 0 -0.5
v 0 0 -0.5
v 0.1 0 -0.5
v 0 0 -0.6
v 0.1 0 -0.6
v 0.2 0 -0.6
v 0.1 0 -0.7
v 0.2 0 -0.7
v 0.3 0 -0.7
v 0.2 0 -0.8
v 0.3 0 -0.8
v 0.4 0 -0.8
v 0.3 0 -0.9
v 0.4 0 -0.9
v 0.4 0 -1
v 0.5 0 -1
v 0.4 0.2 1
v 0.5 0.2 1
v 0.3 0.2 0.9
v 0.4 0.2 0.9
v 0.2 0.2 0.8
v 0.3 0.2 0.8
v 0.4 0.2 0.8
v 0.1 0.2 0.7
v 0.2 0.2 0.7
v 0.3 0.2 0.7
v 0 0.2 0.6
v 0.1 0.2 0.6
v 0.2 0.2 0.6
v -0.1 0.2 0.5
v 0 0.2 0.5
v 0.1 0.2 0.5
v -0.2 0.2 0.4
v -0.1 0.2 0.4
v 0 0.2 0.4
v 0.1 0.2 0.4
v 0.2 0.2 0.4
v -0.3 0.2 0.3
v -0.2 0.2 0.3
v -0.1 0.2 0.3
v 0 0.2 0.3
v 0.1 0.2 0.3
v 0.2 0.2 0.3
v -0.4 0.2 0.2
v -0.3 0.2 0.2
v -0.2 0.2 0.2
v 0 0.2 0.2
v 0.1 0.2 0.2
v 0.2 0.2 0.2
v -0.5 0.2 0.1
v -0.4 0.2 0.1
v -0.3 0.2 0.1
v 0 0.2 0.1
v 0.1 0.2 0.1
v 0.2 0.2 0.1
v -0.5 0.2 -0.1
v -0.4 0.2 -0.1
v -0.3 0.2 -0.1
v 0 0.2 -0.1
v 0.1 0.2 -0.1
v 0.2 0.2 -0.1
v -0.4 0.2 -0.2
v -0.3 0.2 -0.2
v -0.2 0.2 -0.2
v 0 0.2 -0.2
v 0.1 0.2 -0.2
v 0.2 0.2 -0.2
v -0.3 0.2 -0.3
v -0.2 0.2 -0.3
v -0.1 0.2 -0.3
v 0 0.2 -0.3
v 0.1 0.2 -0.3
v 0.2 0.2 -0.3
v -0.2 0.2 -0.4
v -0.1 0.2 -0.4
v 0 0.2 -0.4
v 0.1 0.2 -0.4
v 0.2 0.2 -0.4
v -0.1 0.2 -0.5
v 0 0.2 -0.5
v 0.1 0.2 -0.5
v 0 0.2 -0.6
v 0.1 0.2 -0.6
v 0.2 0.2 -0.6
v 0.1 0.2 -0.7
v 0.2 0.2 -0.7
v 0.3 0.2 -0.7
v 0.2 0.2 -0.8
v 0.3 0.2 -0.8
v 0.4 0.2 -0.8
v 0.3 0.2 -0.9
v 0.4 0.2 -0.9
v 0.4 0.2 -1
v 0.5 0.2 -1

# faces
f 3/3/1 2/3/1 1/3/1
f 4/3/1 2/3/1 3/3/1
f 9/3/1 6/3/1 5/3/1
f 10/3/1 6/3/1 9/3/1
f 11/3/1 8/3/1 7/3/1
f 12/3/1 8/3/1 11/3/1
f 17/3/1 14/3/1 13/3/1
f 18/3/1 14/3/1 17/3/1
f 19/3/1 16/3/1 15/3/1
f 20/3/1 16/3/1 19/3/1
f 25/3/1 22/3/1 21/3/1
f 26/3/1 22/3/1 25/3/1
f 27/3/1 24/3/1 23/3/1
f 28/3/1 24/3/1 27/3/1
f 33/3/1 30/3/1 29/3/1
f 34/3/1 30/3/1 33/3/1
f 35/3/1 32/3/1 31/3/1
f 36/3/1 32/3/1 35/3/1
f 41/3/1 38/3/1 37/3/1
f 42/3/1 38/3/1 41/3/1
f 43/3/1 40/3/1 39/3/1
f 44/3/1 40/3/1 43/3/1
f 49/3/1 46/3/1 45/3/1
f 50/3/1 46/3/1 49/3/1
f 51/3/1 48/3/1 47/3/1
f 52/3/1 48/3/1 51/3/1
f 57/3/1 54/3/1 53/3/1
f 58/3/1 54/3/1 57/3/1
f 59/3/1 56/3/1 55/3/1
f 60/3/1 56/3/1 59/3/1
f 65/3/1 62/3/1 61/3/1
f 66/3/1 62/3/1 65/3/1
f 67/3/1 64/3/1 63/3/1
f 68/3/1 64/3/1 67/3/1
f 73/3/1 70/3/1 69/3/1
f 74/3/1 70/3/1 73/3/1
f 75/3/1 72/3/1 71/3/1
f 76/3/1 72/3/1 75/3/1
f 77/3/2 78/3/2 79/3/2
f 79/3/2 78/3/2 80/3/2
f 83/3/3 82/3/3 81/3/3
f 84/3/3 82/3/3 83/3/3
f 87/3/3 86/3/3 85/3/3
f 88/3/3 86/3/3 87/3/3
f 91/3/3 90/3/3 89/3/3
f 92/3/3 90/3/3 91/3/3
f 95/3/3 94/3/3 93/3/3
f 96/3/3 94/3/3 95/3/3
f 99/3/3 98/3/3 97/3/3
f 100/3/3 98/3/3 99/3/3
f 103/3/3 102/3/3 101/3/3
f 104/3/3 102/3/3 103/3/3
f 107/3/3 106/3/3 105/3/3
f 108/3/3 106/3/3 107/3/3
f 111/3/3 110/3/3 109/3/3
f 112/3/3 110/3/3 111/3/3
f 115/3/3 114/3/3 113/3/3
f 116/3/3 114/3/3 115/3/3
f 119/3/3 118/3/3 117/3/3
f 120/3/3 118/3/3 119/3/3
f 121/3/4 122/3/4 123/3/4
f 123/3/4 122/3/4 124/3/4
f 125/3/4 126/3/4 127/3/4
f 127/3/4 126/3/4 128/3/4
f 129/3/4 130/3/4 131/3/4
f 131/3/4 130/3/4 132/3/4
f 133/3/4 134/3/4 135/3/4
f 135/3/4 134/3/4 136/3/4
f 137/3/4 138/3/4 139/3/4
f 139/3/4 138/3/4 140/3/4
f 141/3/4 142/3/4 143/3/4
f 143/3/4 142/3/4 144/3/4
f 145/3/4 146/3/4 147/3/4
f 147/3/4 146/3/4 148/3/4
f 149/3/4 150/3/4 151/3/4
f 151/3/4 150/3/4 152/3/4
f 153/3/4 154/3/4 155/3/4
f 155/3/4 154/3/4 156/3/4
f 157/3/4 158/3/4 159/3/4
f 159/3/4 158/3/4 160/3/4
f 164/3/5 162/3/5 161/3/5
f 166/3/5 164/3/5 163/3/5
f 167/3/5 162/3/5 164/3/5
f 167/3/5 164/3/5 166/3/5
f 169/3/5 166/3/5 165/3/5
f 170/1/5 167/1/5 166/1/5
f 170/3/5 166/3/5 169/3/5
f 172/3/5 169/3/5 168/3/5
f 173/1/5 170/1/5 169/1/5
f 173/3/5 169/3/5 172/3/5
f 175/3/5 172/3/5 171/3/5
f 176/1/5 173/1/5 172/1/5
f 176/3/5 172/3/5 175/3/5
f 178/3/5 175/3/5 174/3/5
f 179/1/5 176/1/5 175/1/5
f 179/3/5 175/3/5 178/3/5
f 181/3/5 178/3/5 177/3/5
f 182/1/5 179/1/5 178/1/5
f 182/3/5 178/3/5 181/3/5
f 184/3/5 181/3/5 180/3/5
f 185/1/5 182/1/5 181/1/5
f 185/3/5 181/3/5 184/3/5
f 187/3/5 184/3/5 183/3/5
f 188/1/5 185/1/5 184/1/5
f 188/3/5 184/3/5 187/3/5
f 189/3/5 187/3/5 186/3/5
f 190/1/5 188/1/5 187/1/5
f 190/3/5 187/3/5 189/3/5
f 191/1/5 185/1/5 188/1/5
f 191/1/5 188/1/5 190/1/5
f 192/3/5 191/3/5 190/3/5
f 193/1/5 185/1/5 191/1/5
f 193/3/5 191/3/5 192/3/5
f 194/1/5 182/1/5 185/1/5
f 194/1/5 185/1/5 193/1/5
f 195/3/5 194/3/5 193/3/5
f 196/1/5 182/1/5 194/1/5
f 196/3/5 194/3/5 195/3/5
f 197/1/5 179/1/5 182/1/5
f 197/1/5 182/1/5 196/1/5
f 198/3/5 197/3/5 196/3/5
f 199/1/5 179/1/5 197/1/5
f 199/3/5 197/3/5 198/3/5
f 200/1/5 176/1/5 179/1/5
f 200/1/5 179/1/5 199/1/5
f 201/3/5 200/3/5 199/3/5
f 202/1/5 176/1/5 200/1/5
f 202/3/5 200/3/5 201/3/5
f 203/1/5 173/1/5 176/1/5
f 203/1/5 176/1/5 202/1/5
f 204/3/5 203/3/5 202/3/5
f 205/1/5 173/1/5 203/1/5
f 205/3/5 203/3/5 204/3/5
f 206/1/5 170/1/5 173/1/5
f 206/1/5 173/1/5 205/1/5
f 207/3/5 206/3/5 205/3/5
f 208/1/5 170/1/5 206/1/5
f 208/3/5 206/3/5 207/3/5
f 209/1/5 167/1/5 170/1/5
f 209/1/5 170/1/5 208/1/5
f 210/3/5 209/3/5 208/3/5
f 211/1/5 167/1/5 209/1/5
f 211/3/5 209/3/5 210/3/5
f 212/3/5 162/3/5 167/3/5
f 212/1/5 167/1/5 211/1/5
f 213/3/5 212/3/5 211/3/5
f 214/3/5 162/3/5 212/3/5
f 214/3/5 212/3/5 213/3/5
f 215/3/5 162/3/5 214/3/5
f 216/3/5 162/3/5 215/3/5
f 217/3/6 218/3/6 220/3/6
f 219/3/6 220/3/6 222/3/6
f 220/3/6 218/3/6 223/3/6
f 222/3/6 220/3/6 223/3/6
f 221/3/6 222/3/6 225/3/6
f 222/1/6 223/1/6 226/1/6
f 225/3/6 222/3/6 226/3/6
f 224/3/6 225/3/6 228/3/6
f 225/1/6 226/1/6 229/1/6
f 228/3/6 225/3/6 229/3/6
f 227/3/6 228/3/6 231/3/6
f 228/1/6 229/1/6 232/1/6
f 231/3/6 228/3/6 232/3/6
f 230/3/6 231/3/6 234/3/6
f 231/2/6 232/2/6 235/2/6
f 234/3/6 231/3/6 235/3/6
f 232/1/6 229/1/6 236/1/6
f 235/2/6 232/2/6 236/2/6
f 229/1/6 226/1/6 237/1/6
f 236/1/6 229/1/6 237/1/6
f 233/3/6 234/3/6 239/3/6
f 235/1/6 236/1/6 240/1/6
f 234/1/6 235/1/6 240/1/6
f 239/3/6 234/3/6 240/3/6
f 240/1/6 236/1/6 241/1/6
f 236/2/6 237/2/6 242/2/6
f 241/1/6 236/1/6 242/1/6
f 237/1/6 226/1/6 243/1/6
f 242/2/6 237/2/6 243/2/6
f 238/3/6 239/3/6 245/3/6
f 240/1/6 241/1/6 246/1/6
f 239/1/6 240/1/6 246/1/6
f 245/3/6 239/3/6 246/3/6
f 241/2/6 242/2/6 247/2/6
f 246/1/6 241/1/6 247/1/6
f 242/1/6 243/1/6 248/1/6
f 247/2/6 242/2/6 248/2/6
f 243/1/6 226/1/6 249/1/6
f 248/1/6 243/1/6 249/1/6
f 244/3/6 245/3/6 251/3/6
f 247/1/6 248/1/6 252/1/6
f 245/1/6 246/1/6 252/1/6
f 251/3/6 245/3/6 252/3/6
f 246/1/6 247/1/6 252/1/6
f 252/1/6 248/1/6 253/1/6
f 248/2/6 249/2/6 254/2/6
f 253/1/6 248/1/6 254/1/6
f 249/1/6 226/1/6 255/1/6
f 254/2/6 249/2/6 255/2/6
f 250/3/6 251/3/6 256/3/6
f 252/1/6 253/1/6 257/1/6
f 256/3/6 251/3/6 257/3/6
f 251/1/6 252/1/6 257/1/6
f 257/1/6 253/1/6 258/1/6
f 253/2/6 254/2/6 259/2/6
f 258/1/6 253/1/6 259/1/6
f 254/1/6 255/1/6 260/1/6
f 259/2/6 254/2/6 260/2/6
f 255/1/6 226/1/6 261/1/6
f 260/1/6 255/1/6 261/1/6
f 257/3/6 258/3/6 262/3/6
f 259/1/6 260/1/6 263/1/6
f 262/3/6 258/3/6 263/3/6
f 258/1/6 259/1/6 263/1/6
f 263/1/6 260/1/6 264/1/6
f 264/1/6 260/1/6 265/1/6
f 260/2/6 261/2/6 266/2/6
f 265/1/6 260/1/6 266/1/6
f 261/1/6 226/1/6 267/1/6
f 266/2/6 261/2/6 267/2/6
f 263/3/6 264/3/6 268/3/6
f 264/1/6 265/1/6 269/1/6
f 268/3/6 264/3/6 269/3/6
f 269/1/6 265/1/6 270/1/6
f 265/2/6 266/2/6 271/2/6
f 270/1/6 265/1/6 271/1/6
f 266/1/6 267/1/6 272/1/6
f 271/2/6 266/2/6 272/2/6
f 267/1/6 226/1/6 273/1/6
f 272/1/6 267/1/6 273/1/6
f 269/3/6 270/3/6 274/3/6
f 271/1/6 272/1/6 275/1/6
f 274/3/6 270/3/6 275/3/6
f 270/1/6 271/1/6 275/1/6
f 275/1/6 272/1/6 276/1/6
f 272/2/6 273/2/6 277/2/6
f 276/1/6 272/1/6 277/1/6
f 273/1/6 226/1/6 278/1/6
f 277/2/6 273/2/6 278/2/6
f 275/3/6 276/3/6 279/3/6
f 276/2/6 277/2/6 280/2/6
f 279/3/6 276/3/6 280/3/6
f 277/1/6 278/1/6 281/1/6
f 280/2/6 277/2/6 281/2/6
f 280/3/6 281/3/6 282/3/6
f 281/1/6 278/1/6 283/1/6
f 282/3/6 281/3/6 283/3/6
f 278/1/6 226/1/6 284/1/6
f 283/1/6 278/1/6 284/1/6
f 283/3/6 284/3/6 285/3/6
f 284/1/6 226/1/6 286/1/6
f 285/3/6 284/3/6 286/3/6
f 226/1/6 223/1/6 287/1/6
f 286/1/6 226/1/6 287/1/6
f 286/3/6 287/3/6 288/3/6
f 287/1/6 223/1/6 289/1/6
f 288/3/6 287/3/6 289/3/6
f 223/3/6 218/3/6 290/3/6
f 289/1/6 223/1/6 290/1/6
f 289/3/6 290/3/6 291/3/6
f 290/3/6 218/3/6 292/3/6
f 291/3/6 290/3/6 292/3/6
f 292/3/6 218/3/6 293/3/6
f 293/3/6 218/3/6 294/3/6
